<mxfile host="app.diagrams.net" modified="2023-04-12T02:29:29.816Z" agent="Mozilla/5.0 (Macintosh; Intel Mac OS X 10_15_7) AppleWebKit/537.36 (KHTML, like Gecko) Chrome/111.0.0.0 Safari/537.36" version="21.1.5" etag="H8GGS1d35dCqlDWVEc8K" type="github">
  <diagram name="Page-1" id="R0WzZUCGKR_wfvWlxv0_">
    <mxGraphModel>
      <root>
        <mxCell id="0" />
        <mxCell id="1" parent="0" />
      </root>
    </mxGraphModel>
  </diagram>
</mxfile>
